<?xml version="1.0" encoding="utf-8"?>
<!-- Generator: Adobe Illustrator 22.1.0, SVG Export Plug-In . SVG Version: 6.00 Build 0)  -->
<svg version="1.1" id="图层_1" xmlns="http://www.w3.org/2000/svg" xmlns:xlink="http://www.w3.org/1999/xlink" x="0px" y="0px"
	 viewBox="0 0 779 643" style="enable-background:new 0 0 779 643;" xml:space="preserve">
<style type="text/css">
	.st0{fill:none;stroke:#000000;stroke-linecap:round;stroke-linejoin:round;stroke-miterlimit:10;}
	.st1{font-family:'Helvetica';}
	.st2{font-size:10px;}
	.st3{fill:none;stroke:#000000;stroke-width:0.5;stroke-linecap:square;stroke-miterlimit:10;}
	.st4{font-size:8px;}
	
		.st5{fill:none;stroke:#000000;stroke-width:0.5;stroke-linecap:round;stroke-linejoin:round;stroke-miterlimit:1;stroke-dasharray:0.5,2;}
</style>
<g>
	<g transform="translate(6,6)">
		<line class="st0" x1="218.5" y1="613" x2="284.5" y2="613"/>
		<text transform="matrix(1 0 0 1 234.8301 628)" class="st1 st2">3.0E-5</text>
		<path class="st0" d="M63.5,209H37.4v-55.8"/>
		<path class="st0" d="M424.2,509H319.9v17"/>
		<path class="st0" d="M354.7,257H248.6v6"/>
		<path class="st0" d="M428.4,545H319.9v-19"/>
		<path class="st0" d="M380.1,41h-66.4v-6"/>
		<path class="st0" d="M412.1,485h-26.3v6"/>
		<path class="st0" d="M355.7,449h-65.5l0,0"/>
		<path class="st0" d="M144.4,74.9H37.4v78.3"/>
		<path class="st0" d="M330.5,473H224.1v-12"/>
		<path class="st0" d="M171.9,53h-27.5v21.9"/>
		<path class="st0" d="M99.7,197H37.4v-43.8"/>
		<path class="st0" d="M374.6,323h-70l0,0"/>
		<path class="st0" d="M394.3,533h-74.4v-7"/>
		<path class="st0" d="M459,377H237.3v-40.5"/>
		<path class="st0" d="M250.7,65H144.4v9.9"/>
		<path class="st0" d="M479.8,329H374.6v-6"/>
		<path class="st0" d="M237.9,221H106v48.4"/>
		<path class="st0" d="M451.6,497h-65.8v-6"/>
		<path class="st0" d="M159,525.8H6.9V339.5"/>
		<path class="st0" d="M209.3,26h-65v48.9"/>
		<path class="st0" d="M145.4,125H37.4v28.2"/>
		<path class="st0" d="M355.1,437h-64.9v12"/>
		<path class="st0" d="M385.8,491h-65.9v35"/>
		<path class="st0" d="M138.4,137h-101v16.2"/>
		<path class="st0" d="M196.3,389h-27v-4.1"/>
		<path class="st0" d="M444.3,113h-300V74.9"/>
		<path class="st0" d="M237.2,413h-67.8v-28.1"/>
		<path class="st0" d="M441.5,305h-66.8v18"/>
		<path class="st0" d="M304.6,323h-67.3v13.5"/>
		<path class="st0" d="M144.9,185H37.4v-31.8"/>
		<path class="st0" d="M427.4,557H319.9v-31"/>
		<path class="st0" d="M464.4,29H313.7v6"/>
		<path class="st0" d="M371.6,293h-67v30"/>
		<path class="st0" d="M234.9,401h-65.5v-16.1"/>
		<path class="st0" d="M358.8,461h-68.6v-12"/>
		<path class="st0" d="M501,521H319.9v5"/>
		<path class="st0" d="M224.8,569H159v-43.2"/>
		<path class="st0" d="M250.2,101H144.4V74.9"/>
		<path class="st0" d="M209.1,245H106v24.4"/>
		<path class="st0" d="M65.5,149H37.4v4.2"/>
		<path class="st0" d="M172,89h-27.6V74.9"/>
		<path class="st0" d="M139.9,5H37.4v148.2"/>
		<path class="st0" d="M290.2,449h-66.1v12"/>
		<path class="st0" d="M319.9,526H159v-0.2"/>
		<path class="st0" d="M248.6,263H106v6.4"/>
		<path class="st0" d="M224.1,461H159v64.8"/>
		<path class="st0" d="M134.9,173H37.4v-19.8"/>
		<path class="st0" d="M237.3,336.5h-67.9v48.4"/>
		<path class="st0" d="M224.8,581H159v-55.2"/>
		<path class="st0" d="M63.5,161H37.4v-7.8"/>
		<path class="st0" d="M169.4,384.9H106V269.4"/>
		<path class="st0" d="M501,365H237.3v-28.5"/>
		<path class="st0" d="M2,339.5h4.9"/>
		<path class="st0" d="M236,17h-26.7v9"/>
		<path class="st0" d="M483,341H374.6v-18"/>
		<path class="st0" d="M264.5,593H159v-67.2"/>
		<path class="st0" d="M313.7,35H209.3v-9"/>
		<path class="st0" d="M106,269.4H37.4V153.2"/>
		<path class="st0" d="M401.3,317h-26.7v6"/>
		<path class="st0" d="M37.4,153.2H6.9v186.3"/>
		<path class="st0" d="M173.8,233H106v36.4"/>
		<path class="st0" d="M345.1,281H237.3v55.5"/>
		<path class="st0" d="M473.2,269H248.6v-6"/>
		<path class="st0" d="M329.3,77H144.4v-2.1"/>
		<path class="st0" d="M371.9,353h-67.3v-30"/>
		<path class="st0" d="M187.4,425H159v100.8"/>
		<path d="M65.5,209c0,1.1-0.9,2-2,2c-1.1,0-2-0.9-2-2s0.9-2,2-2C64.6,207,65.5,207.9,65.5,209z"/>
	</g>
	<g transform="translate(6,6)">
		<path class="st3" d="M65.5,209c0,1.1-0.9,2-2,2c-1.1,0-2-0.9-2-2s0.9-2,2-2C64.6,207,65.5,207.9,65.5,209z"/>
		<path d="M426.2,509c0,1.1-0.9,2-2,2c-1.1,0-2-0.9-2-2s0.9-2,2-2C425.3,507,426.2,507.9,426.2,509z"/>
		<path class="st3" d="M426.2,509c0,1.1-0.9,2-2,2c-1.1,0-2-0.9-2-2s0.9-2,2-2C425.3,507,426.2,507.9,426.2,509z"/>
		<path d="M356.7,257c0,1.1-0.9,2-2,2c-1.1,0-2-0.9-2-2c0-1.1,0.9-2,2-2C355.8,255,356.7,255.9,356.7,257z"/>
		<path class="st3" d="M356.7,257c0,1.1-0.9,2-2,2c-1.1,0-2-0.9-2-2c0-1.1,0.9-2,2-2C355.8,255,356.7,255.9,356.7,257z"/>
		<path d="M430.4,545c0,1.1-0.9,2-2,2c-1.1,0-2-0.9-2-2s0.9-2,2-2C429.5,543,430.4,543.9,430.4,545z"/>
		<path class="st3" d="M430.4,545c0,1.1-0.9,2-2,2c-1.1,0-2-0.9-2-2s0.9-2,2-2C429.5,543,430.4,543.9,430.4,545z"/>
		<path d="M382.1,41c0,1.1-0.9,2-2,2c-1.1,0-2-0.9-2-2s0.9-2,2-2C381.2,39,382.1,39.9,382.1,41z"/>
		<path class="st3" d="M382.1,41c0,1.1-0.9,2-2,2c-1.1,0-2-0.9-2-2s0.9-2,2-2C381.2,39,382.1,39.9,382.1,41z"/>
		<path d="M414.1,485c0,1.1-0.9,2-2,2c-1.1,0-2-0.9-2-2s0.9-2,2-2C413.2,483,414.1,483.9,414.1,485z"/>
		<path class="st3" d="M414.1,485c0,1.1-0.9,2-2,2c-1.1,0-2-0.9-2-2s0.9-2,2-2C413.2,483,414.1,483.9,414.1,485z"/>
		<path d="M357.7,449c0,1.1-0.9,2-2,2c-1.1,0-2-0.9-2-2s0.9-2,2-2C356.8,447,357.7,447.9,357.7,449z"/>
		<path class="st3" d="M357.7,449c0,1.1-0.9,2-2,2c-1.1,0-2-0.9-2-2s0.9-2,2-2C356.8,447,357.7,447.9,357.7,449z"/>
		<path d="M332.5,473c0,1.1-0.9,2-2,2c-1.1,0-2-0.9-2-2s0.9-2,2-2C331.6,471,332.5,471.9,332.5,473z"/>
		<path class="st3" d="M332.5,473c0,1.1-0.9,2-2,2c-1.1,0-2-0.9-2-2s0.9-2,2-2C331.6,471,332.5,471.9,332.5,473z"/>
		<path d="M173.9,53c0,1.1-0.9,2-2,2c-1.1,0-2-0.9-2-2s0.9-2,2-2C173,51,173.9,51.9,173.9,53z"/>
		<path class="st3" d="M173.9,53c0,1.1-0.9,2-2,2c-1.1,0-2-0.9-2-2s0.9-2,2-2C173,51,173.9,51.9,173.9,53z"/>
		<path d="M101.7,197c0,1.1-0.9,2-2,2c-1.1,0-2-0.9-2-2s0.9-2,2-2C100.8,195,101.7,195.9,101.7,197z"/>
		<path class="st3" d="M101.7,197c0,1.1-0.9,2-2,2c-1.1,0-2-0.9-2-2s0.9-2,2-2C100.8,195,101.7,195.9,101.7,197z"/>
		<path d="M396.3,533c0,1.1-0.9,2-2,2c-1.1,0-2-0.9-2-2s0.9-2,2-2C395.4,531,396.3,531.9,396.3,533z"/>
		<path class="st3" d="M396.3,533c0,1.1-0.9,2-2,2c-1.1,0-2-0.9-2-2s0.9-2,2-2C395.4,531,396.3,531.9,396.3,533z"/>
		<path d="M461,377c0,1.1-0.9,2-2,2c-1.1,0-2-0.9-2-2s0.9-2,2-2C460.1,375,461,375.9,461,377z"/>
		<path class="st3" d="M461,377c0,1.1-0.9,2-2,2c-1.1,0-2-0.9-2-2s0.9-2,2-2C460.1,375,461,375.9,461,377z"/>
		<path d="M252.7,65c0,1.1-0.9,2-2,2c-1.1,0-2-0.9-2-2c0-1.1,0.9-2,2-2C251.8,63,252.7,63.9,252.7,65z"/>
		<path class="st3" d="M252.7,65c0,1.1-0.9,2-2,2c-1.1,0-2-0.9-2-2c0-1.1,0.9-2,2-2C251.8,63,252.7,63.9,252.7,65z"/>
		<path d="M239.9,221c0,1.1-0.9,2-2,2s-2-0.9-2-2s0.9-2,2-2S239.9,219.9,239.9,221z"/>
		<path class="st3" d="M239.9,221c0,1.1-0.9,2-2,2s-2-0.9-2-2s0.9-2,2-2S239.9,219.9,239.9,221z"/>
		<path d="M481.8,329c0,1.1-0.9,2-2,2c-1.1,0-2-0.9-2-2s0.9-2,2-2C480.9,327,481.8,327.9,481.8,329z"/>
		<path class="st3" d="M481.8,329c0,1.1-0.9,2-2,2c-1.1,0-2-0.9-2-2s0.9-2,2-2C480.9,327,481.8,327.9,481.8,329z"/>
		<path d="M453.6,497c0,1.1-0.9,2-2,2c-1.1,0-2-0.9-2-2s0.9-2,2-2C452.7,495,453.6,495.9,453.6,497z"/>
		<path class="st3" d="M453.6,497c0,1.1-0.9,2-2,2c-1.1,0-2-0.9-2-2s0.9-2,2-2C452.7,495,453.6,495.9,453.6,497z"/>
		<path d="M147.4,125c0,1.1-0.9,2-2,2s-2-0.9-2-2s0.9-2,2-2S147.4,123.9,147.4,125z"/>
		<path class="st3" d="M147.4,125c0,1.1-0.9,2-2,2s-2-0.9-2-2s0.9-2,2-2S147.4,123.9,147.4,125z"/>
		<path d="M357.1,437c0,1.1-0.9,2-2,2c-1.1,0-2-0.9-2-2s0.9-2,2-2C356.2,435,357.1,435.9,357.1,437z"/>
		<path class="st3" d="M357.1,437c0,1.1-0.9,2-2,2c-1.1,0-2-0.9-2-2s0.9-2,2-2C356.2,435,357.1,435.9,357.1,437z"/>
		<path d="M140.4,137c0,1.1-0.9,2-2,2c-1.1,0-2-0.9-2-2s0.9-2,2-2C139.5,135,140.4,135.9,140.4,137z"/>
		<path class="st3" d="M140.4,137c0,1.1-0.9,2-2,2c-1.1,0-2-0.9-2-2s0.9-2,2-2C139.5,135,140.4,135.9,140.4,137z"/>
		<path d="M198.3,389c0,1.1-0.9,2-2,2c-1.1,0-2-0.9-2-2s0.9-2,2-2C197.5,387,198.3,387.9,198.3,389z"/>
		<path class="st3" d="M198.3,389c0,1.1-0.9,2-2,2c-1.1,0-2-0.9-2-2s0.9-2,2-2C197.5,387,198.3,387.9,198.3,389z"/>
		<path d="M446.3,113c0,1.1-0.9,2-2,2s-2-0.9-2-2s0.9-2,2-2S446.3,111.9,446.3,113z"/>
		<path class="st3" d="M446.3,113c0,1.1-0.9,2-2,2s-2-0.9-2-2s0.9-2,2-2S446.3,111.9,446.3,113z"/>
		<path d="M239.2,413c0,1.1-0.9,2-2,2c-1.1,0-2-0.9-2-2s0.9-2,2-2C238.3,411,239.2,411.9,239.2,413z"/>
		<path class="st3" d="M239.2,413c0,1.1-0.9,2-2,2c-1.1,0-2-0.9-2-2s0.9-2,2-2C238.3,411,239.2,411.9,239.2,413z"/>
		<path d="M443.5,305c0,1.1-0.9,2-2,2c-1.1,0-2-0.9-2-2s0.9-2,2-2C442.6,303,443.5,303.9,443.5,305z"/>
		<path class="st3" d="M443.5,305c0,1.1-0.9,2-2,2c-1.1,0-2-0.9-2-2s0.9-2,2-2C442.6,303,443.5,303.9,443.5,305z"/>
		<path d="M146.9,185c0,1.1-0.9,2-2,2c-1.1,0-2-0.9-2-2s0.9-2,2-2C146,183,146.9,183.9,146.9,185z"/>
		<path class="st3" d="M146.9,185c0,1.1-0.9,2-2,2c-1.1,0-2-0.9-2-2s0.9-2,2-2C146,183,146.9,183.9,146.9,185z"/>
		<path d="M429.4,557c0,1.1-0.9,2-2,2c-1.1,0-2-0.9-2-2s0.9-2,2-2C428.5,555,429.4,555.9,429.4,557z"/>
		<path class="st3" d="M429.4,557c0,1.1-0.9,2-2,2c-1.1,0-2-0.9-2-2s0.9-2,2-2C428.5,555,429.4,555.9,429.4,557z"/>
		<path d="M466.4,29c0,1.1-0.9,2-2,2c-1.1,0-2-0.9-2-2s0.9-2,2-2C465.5,27,466.4,27.9,466.4,29z"/>
		<path class="st3" d="M466.4,29c0,1.1-0.9,2-2,2c-1.1,0-2-0.9-2-2s0.9-2,2-2C465.5,27,466.4,27.9,466.4,29z"/>
		<path d="M373.6,293c0,1.1-0.9,2-2,2c-1.1,0-2-0.9-2-2s0.9-2,2-2C372.8,291,373.6,291.9,373.6,293z"/>
		<path class="st3" d="M373.6,293c0,1.1-0.9,2-2,2c-1.1,0-2-0.9-2-2s0.9-2,2-2C372.8,291,373.6,291.9,373.6,293z"/>
		<path d="M236.9,401c0,1.1-0.9,2-2,2c-1.1,0-2-0.9-2-2s0.9-2,2-2C236,399,236.9,399.9,236.9,401z"/>
		<path class="st3" d="M236.9,401c0,1.1-0.9,2-2,2c-1.1,0-2-0.9-2-2s0.9-2,2-2C236,399,236.9,399.9,236.9,401z"/>
		<path d="M360.8,461c0,1.1-0.9,2-2,2c-1.1,0-2-0.9-2-2s0.9-2,2-2C359.9,459,360.8,459.9,360.8,461z"/>
		<path class="st3" d="M360.8,461c0,1.1-0.9,2-2,2c-1.1,0-2-0.9-2-2s0.9-2,2-2C359.9,459,360.8,459.9,360.8,461z"/>
		<path d="M503,521c0,1.1-0.9,2-2,2s-2-0.9-2-2s0.9-2,2-2S503,519.9,503,521z"/>
		<path class="st3" d="M503,521c0,1.1-0.9,2-2,2s-2-0.9-2-2s0.9-2,2-2S503,519.9,503,521z"/>
		<path d="M226.8,569c0,1.1-0.9,2-2,2c-1.1,0-2-0.9-2-2s0.9-2,2-2C225.9,567,226.8,567.9,226.8,569z"/>
		<path class="st3" d="M226.8,569c0,1.1-0.9,2-2,2c-1.1,0-2-0.9-2-2s0.9-2,2-2C225.9,567,226.8,567.9,226.8,569z"/>
		<path d="M252.2,101c0,1.1-0.9,2-2,2c-1.1,0-2-0.9-2-2s0.9-2,2-2C251.3,99,252.2,99.9,252.2,101z"/>
		<path class="st3" d="M252.2,101c0,1.1-0.9,2-2,2c-1.1,0-2-0.9-2-2s0.9-2,2-2C251.3,99,252.2,99.9,252.2,101z"/>
		<path d="M67.5,149c0,1.1-0.9,2-2,2s-2-0.9-2-2s0.9-2,2-2S67.5,147.9,67.5,149z"/>
		<path class="st3" d="M67.5,149c0,1.1-0.9,2-2,2s-2-0.9-2-2s0.9-2,2-2S67.5,147.9,67.5,149z"/>
		<path d="M211.1,245c0,1.1-0.9,2-2,2c-1.1,0-2-0.9-2-2s0.9-2,2-2C210.2,243,211.1,243.9,211.1,245z"/>
		<path class="st3" d="M211.1,245c0,1.1-0.9,2-2,2c-1.1,0-2-0.9-2-2s0.9-2,2-2C210.2,243,211.1,243.9,211.1,245z"/>
		<path d="M141.9,5c0,1.1-0.9,2-2,2s-2-0.9-2-2s0.9-2,2-2S141.9,3.9,141.9,5z"/>
		<path class="st3" d="M141.9,5c0,1.1-0.9,2-2,2s-2-0.9-2-2s0.9-2,2-2S141.9,3.9,141.9,5z"/>
		<path d="M174,89c0,1.1-0.9,2-2,2s-2-0.9-2-2s0.9-2,2-2S174,87.9,174,89z"/>
		<path class="st3" d="M174,89c0,1.1-0.9,2-2,2s-2-0.9-2-2s0.9-2,2-2S174,87.9,174,89z"/>
		<path d="M136.9,173c0,1.1-0.9,2-2,2s-2-0.9-2-2s0.9-2,2-2S136.9,171.9,136.9,173z"/>
		<path class="st3" d="M136.9,173c0,1.1-0.9,2-2,2s-2-0.9-2-2s0.9-2,2-2S136.9,171.9,136.9,173z"/>
		<path d="M226.8,581c0,1.1-0.9,2-2,2c-1.1,0-2-0.9-2-2s0.9-2,2-2C225.9,579,226.8,579.9,226.8,581z"/>
		<path class="st3" d="M226.8,581c0,1.1-0.9,2-2,2c-1.1,0-2-0.9-2-2s0.9-2,2-2C225.9,579,226.8,579.9,226.8,581z"/>
		<path d="M65.5,161c0,1.1-0.9,2-2,2c-1.1,0-2-0.9-2-2s0.9-2,2-2C64.6,159,65.5,159.9,65.5,161z"/>
		<path class="st3" d="M65.5,161c0,1.1-0.9,2-2,2c-1.1,0-2-0.9-2-2s0.9-2,2-2C64.6,159,65.5,159.9,65.5,161z"/>
		<path d="M503,365c0,1.1-0.9,2-2,2s-2-0.9-2-2s0.9-2,2-2S503,363.9,503,365z"/>
		<path class="st3" d="M503,365c0,1.1-0.9,2-2,2s-2-0.9-2-2s0.9-2,2-2S503,363.9,503,365z"/>
		<path d="M238,17c0,1.1-0.9,2-2,2c-1.1,0-2-0.9-2-2c0-1.1,0.9-2,2-2C237.1,15,238,15.9,238,17z"/>
		<path class="st3" d="M238,17c0,1.1-0.9,2-2,2c-1.1,0-2-0.9-2-2c0-1.1,0.9-2,2-2C237.1,15,238,15.9,238,17z"/>
		<path d="M485,341c0,1.1-0.9,2-2,2c-1.1,0-2-0.9-2-2s0.9-2,2-2C484.2,339,485,339.9,485,341z"/>
		<path class="st3" d="M485,341c0,1.1-0.9,2-2,2c-1.1,0-2-0.9-2-2s0.9-2,2-2C484.2,339,485,339.9,485,341z"/>
		<path d="M266.5,593c0,1.1-0.9,2-2,2c-1.1,0-2-0.9-2-2s0.9-2,2-2C265.6,591,266.5,591.9,266.5,593z"/>
		<path class="st3" d="M266.5,593c0,1.1-0.9,2-2,2c-1.1,0-2-0.9-2-2s0.9-2,2-2C265.6,591,266.5,591.9,266.5,593z"/>
		<path d="M403.3,317c0,1.1-0.9,2-2,2c-1.1,0-2-0.9-2-2s0.9-2,2-2C402.4,315,403.3,315.9,403.3,317z"/>
		<path class="st3" d="M403.3,317c0,1.1-0.9,2-2,2c-1.1,0-2-0.9-2-2s0.9-2,2-2C402.4,315,403.3,315.9,403.3,317z"/>
		<path d="M175.8,233c0,1.1-0.9,2-2,2s-2-0.9-2-2s0.9-2,2-2S175.8,231.9,175.8,233z"/>
		<path class="st3" d="M175.8,233c0,1.1-0.9,2-2,2s-2-0.9-2-2s0.9-2,2-2S175.8,231.9,175.8,233z"/>
		<path d="M347.1,281c0,1.1-0.9,2-2,2c-1.1,0-2-0.9-2-2s0.9-2,2-2C346.2,279,347.1,279.9,347.1,281z"/>
		<path class="st3" d="M347.1,281c0,1.1-0.9,2-2,2c-1.1,0-2-0.9-2-2s0.9-2,2-2C346.2,279,347.1,279.9,347.1,281z"/>
		<path d="M475.2,269c0,1.1-0.9,2-2,2c-1.1,0-2-0.9-2-2s0.9-2,2-2C474.3,267,475.2,267.9,475.2,269z"/>
		<path class="st3" d="M475.2,269c0,1.1-0.9,2-2,2c-1.1,0-2-0.9-2-2s0.9-2,2-2C474.3,267,475.2,267.9,475.2,269z"/>
		<path d="M331.3,77c0,1.1-0.9,2-2,2c-1.1,0-2-0.9-2-2s0.9-2,2-2C330.4,75,331.3,75.9,331.3,77z"/>
		<path class="st3" d="M331.3,77c0,1.1-0.9,2-2,2c-1.1,0-2-0.9-2-2s0.9-2,2-2C330.4,75,331.3,75.9,331.3,77z"/>
		<path d="M373.9,353c0,1.1-0.9,2-2,2c-1.1,0-2-0.9-2-2s0.9-2,2-2C373,351,373.9,351.9,373.9,353z"/>
		<path class="st3" d="M373.9,353c0,1.1-0.9,2-2,2c-1.1,0-2-0.9-2-2s0.9-2,2-2C373,351,373.9,351.9,373.9,353z"/>
		<path d="M189.4,425c0,1.1-0.9,2-2,2c-1.1,0-2-0.9-2-2s0.9-2,2-2C188.6,423,189.4,423.9,189.4,425z"/>
		<path class="st3" d="M189.4,425c0,1.1-0.9,2-2,2c-1.1,0-2-0.9-2-2s0.9-2,2-2C188.6,423,189.4,423.9,189.4,425z"/>
		<text transform="matrix(1 0 0 1 511 212)" class="st1 st4">SARS_CoV-2_CA6_human_2020_USA___MT044258</text>
	</g>
	<g transform="matrix(1,0,0,1,6,6)">
		<path class="st5" d="M63.5,209H501"/>
		<text transform="matrix(1 0 0 1 511 512)" class="st1 st4">hCoV_19_England_SHEF-C035E_2020_EPI_ISL_420220</text>
	</g>
	<g transform="matrix(1,0,0,1,6,6)">
		<path class="st5" d="M424.2,509H501"/>
		<text transform="matrix(1 0 0 1 511 260)" class="st1 st4">hCoV_19_Australia_QLD09_2020_EPI_ISL_414414</text>
	</g>
	<g transform="matrix(1,0,0,1,6,6)">
		<path class="st5" d="M354.7,257H501"/>
		<text transform="matrix(1 0 0 1 511 548)" class="st1 st4">hCoV_19_Australia_VIC199_2020_EPI_ISL_419895</text>
	</g>
	<g transform="matrix(1,0,0,1,6,6)">
		<path class="st5" d="M428.4,545H501"/>
		<text transform="matrix(1 0 0 1 511 44)" class="st1 st4">hCoV_19_USA_VA-DCLS-0019_2020_EPI_ISL_420029</text>
	</g>
	<g transform="matrix(1,0,0,1,6,6)">
		<path class="st5" d="M380.1,41H501"/>
		<text transform="matrix(1 0 0 1 511 488)" class="st1 st4">hCoV_19_England_SHEF-C05A3_2020_EPI_ISL_420279</text>
	</g>
	<g transform="matrix(1,0,0,1,6,6)">
		<path class="st5" d="M412.1,485H501"/>
		<text transform="matrix(1 0 0 1 511 452)" class="st1 st4">hCoV_19_France_IDF2989_2020_EPI_ISL_420051</text>
	</g>
	<g transform="matrix(1,0,0,1,6,6)">
		<path class="st5" d="M355.7,449H501"/>
		<text transform="matrix(1 0 0 1 511 476)" class="st1 st4">hCoV_19_France_IDF2768_2020_EPI_ISL_420042</text>
	</g>
	<g transform="matrix(1,0,0,1,6,6)">
		<path class="st5" d="M330.5,473H501"/>
		<text transform="matrix(1 0 0 1 511 56)" class="st1 st4">Taiwan_NTU01_2020___MT066175</text>
	</g>
	<g transform="matrix(1,0,0,1,6,6)">
		<path class="st5" d="M171.9,53H501"/>
		<text transform="matrix(1 0 0 1 511 200)" class="st1 st4">hCoV_19_Netherlands_Rotterdam_1364040_2020_EPI_ISL_413583</text>
	</g>
	<g transform="matrix(1,0,0,1,6,6)">
		<path class="st5" d="M99.7,197H501"/>
		<text transform="matrix(1 0 0 1 511 536)" class="st1 st4">hCoV_19_USA_VA-DCLS-0042_2020_EPI_ISL_420023</text>
	</g>
	<g transform="matrix(1,0,0,1,6,6)">
		<path class="st5" d="M394.3,533H501"/>
		<text transform="matrix(1 0 0 1 511 380)" class="st1 st4">hCoV_19_Australia_VIC208_2020_EPI_ISL_419903</text>
	</g>
	<g transform="matrix(1,0,0,1,6,6)">
		<path class="st5" d="M459,377h42"/>
		<text transform="matrix(1 0 0 1 511 68)" class="st1 st4">hCoV_19_South_Korea_KUMC06_2020_EPI_ISL_413516</text>
	</g>
	<g transform="matrix(1,0,0,1,6,6)">
		<path class="st5" d="M250.7,65H501"/>
		<text transform="matrix(1 0 0 1 511 224)" class="st1 st4">SARS_CoV-2_ISR_JP0320_human_2020_ISR___MT276597</text>
	</g>
	<g transform="matrix(1,0,0,1,6,6)">
		<path class="st5" d="M237.9,221H501"/>
		<text transform="matrix(1 0 0 1 511 332)" class="st1 st4">hCoV_19_England_SHEF-C053A_2020_EPI_ISL_420235</text>
	</g>
	<g transform="matrix(1,0,0,1,6,6)">
		<path class="st5" d="M479.8,329H501"/>
		<text transform="matrix(1 0 0 1 511 500)" class="st1 st4">hCoV_19_England_SHEF-C078F_2020_EPI_ISL_420265</text>
	</g>
	<g transform="matrix(1,0,0,1,6,6)">
		<path class="st5" d="M451.6,497H501"/>
		<text transform="matrix(1 0 0 1 511 128)" class="st1 st4">hCoV_19_Wuhan_IVDC-HB-04_2020_EPI_ISL_402120</text>
	</g>
	<g transform="matrix(1,0,0,1,6,6)">
		<path class="st5" d="M145.4,125H501"/>
		<text transform="matrix(1 0 0 1 511 440)" class="st1 st4">hCoV_19_USA_VA-DCLS-0046_2020_EPI_ISL_420027</text>
	</g>
	<g transform="matrix(1,0,0,1,6,6)">
		<path class="st5" d="M355.1,437H501"/>
		<text transform="matrix(1 0 0 1 511 140)" class="st1 st4">hCoV_19_Zhejiang_WZ-01_2020_EPI_ISL_404227</text>
	</g>
	<g transform="matrix(1,0,0,1,6,6)">
		<path class="st5" d="M138.4,137H501"/>
		<text transform="matrix(1 0 0 1 511 392)" class="st1 st4">hCoV_19_Italy_SPL1_2020__EPI_ISL_412974</text>
	</g>
	<g transform="matrix(1,0,0,1,6,6)">
		<path class="st5" d="M196.3,389H501"/>
		<text transform="matrix(1 0 0 1 511 116)" class="st1 st4">hCoV_19_Spain_Valencia30_2020_EPI_ISL_420115</text>
	</g>
	<g transform="matrix(1,0,0,1,6,6)">
		<path class="st5" d="M444.3,113H501"/>
		<text transform="matrix(1 0 0 1 511 416)" class="st1 st4">hCoV_19_Norway_1455_2020_EPI_ISL_420135</text>
	</g>
	<g transform="matrix(1,0,0,1,6,6)">
		<path class="st5" d="M237.2,413H501"/>
		<text transform="matrix(1 0 0 1 511 308)" class="st1 st4">hCoV_19_England_200990724_2020_EPI_ISL_414006</text>
	</g>
	<g transform="matrix(1,0,0,1,6,6)">
		<path class="st5" d="M441.5,305H501"/>
		<text transform="matrix(1 0 0 1 511 188)" class="st1 st4">hCoV_19_Canada_ON-PHL2445_2020_EPI_ISL_413014</text>
	</g>
	<g transform="matrix(1,0,0,1,6,6)">
		<path class="st5" d="M144.9,185H501"/>
		<text transform="matrix(1 0 0 1 511 560)" class="st1 st4">hCoV_19_Netherlands_ZuidHolland_6_2020_EPI_ISL_414466</text>
	</g>
	<g transform="matrix(1,0,0,1,6,6)">
		<path class="st5" d="M427.4,557H501"/>
		<text transform="matrix(1 0 0 1 511 32)" class="st1 st4">hCoV_19_Australia_VIC288_2020_EPI_ISL_419979</text>
	</g>
	<g transform="matrix(1,0,0,1,6,6)">
		<path class="st5" d="M464.4,29H501"/>
		<text transform="matrix(1 0 0 1 511 296)" class="st1 st4">hCoV_19_England_SHEF-C060A_2020_EPI_ISL_420285</text>
	</g>
	<g transform="matrix(1,0,0,1,6,6)">
		<path class="st5" d="M371.6,293H501"/>
		<text transform="matrix(1 0 0 1 511 404)" class="st1 st4">hCoV_19_Italy_INMI1-isl_2020_EPI_ISL_410545</text>
	</g>
	<g transform="matrix(1,0,0,1,6,6)">
		<path class="st5" d="M234.9,401H501"/>
		<text transform="matrix(1 0 0 1 511 464)" class="st1 st4">hCoV_19_Australia_VIC259_2020_EPI_ISL_419952</text>
	</g>
	<g transform="matrix(1,0,0,1,6,6)">
		<path class="st5" d="M358.8,461H501"/>
		<text transform="matrix(1 0 0 1 511 524)" class="st1 st4">hCoV_19_England_SHEF-C0813_2020_EPI_ISL_420166</text>
	</g>
	<g transform="matrix(1,0,0,1,6,6)">
		<path class="st5" d="M501,521L501,521"/>
		<text transform="matrix(1 0 0 1 511 572)" class="st1 st4">hCoV_19_France_GE2720_2020_EPI_ISL_420039</text>
	</g>
	<g transform="matrix(1,0,0,1,6,6)">
		<path class="st5" d="M224.8,569H501"/>
		<text transform="matrix(1 0 0 1 511 104)" class="st1 st4">hCoV_19_China_WF0029_2020_EPI_ISL_413809</text>
	</g>
	<g transform="matrix(1,0,0,1,6,6)">
		<path class="st5" d="M250.2,101H501"/>
		<text transform="matrix(1 0 0 1 511 152)" class="st1 st4">hCoV_19_Japan_NA-20-05-1_2020_EPI_ISL_410531</text>
	</g>
	<g transform="matrix(1,0,0,1,6,6)">
		<path class="st5" d="M65.5,149H501"/>
		<text transform="matrix(1 0 0 1 511 248)" class="st1 st4">hCoV_19_France_IDF0571_2020_EPI_ISL_411218</text>
	</g>
	<g transform="matrix(1,0,0,1,6,6)">
		<path class="st5" d="M209.1,245H501"/>
		<text transform="matrix(1 0 0 1 511 8)" class="st1 st4">2019_nCoV_USA_CruiseA-2_2020___MT159718</text>
	</g>
	<g transform="matrix(1,0,0,1,6,6)">
		<path class="st5" d="M139.9,5H501"/>
		<text transform="matrix(1 0 0 1 511 92)" class="st1 st4">hCoV_19_China_WF0016_2020_EPI_ISL_413746</text>
	</g>
	<g transform="matrix(1,0,0,1,6,6)">
		<path class="st5" d="M172,89h329"/>
		<text transform="matrix(1 0 0 1 511 176)" class="st1 st4">hCoV_19_Hong_Kong_case48_VM20002507_2020_EPI_ISL_414528</text>
	</g>
	<g transform="matrix(1,0,0,1,6,6)">
		<path class="st5" d="M134.9,173H501"/>
		<text transform="matrix(1 0 0 1 511 584)" class="st1 st4">hCoV_19_Ireland_Limerick-19934_2020_EPI_ISL_414586</text>
	</g>
	<g transform="matrix(1,0,0,1,6,6)">
		<path class="st5" d="M224.8,581H501"/>
		<text transform="matrix(1 0 0 1 511 164)" class="st1 st4">hCoV_19_Wuhan_HBCDC-HB-03_2019_EPI_ISL_412899</text>
	</g>
	<g transform="matrix(1,0,0,1,6,6)">
		<path class="st5" d="M63.5,161H501"/>
		<text transform="matrix(1 0 0 1 511 368)" class="st1 st4">hCoV_19_Australia_VIC280_2020_EPI_ISL_419973</text>
	</g>
	<g transform="matrix(1,0,0,1,6,6)">
		<path class="st5" d="M501,365L501,365"/>
		<text transform="matrix(1 0 0 1 511 20)" class="st1 st4">BetaCoV_USA_WA1-A12_2020___MT020880</text>
	</g>
	<g transform="matrix(1,0,0,1,6,6)">
		<path class="st5" d="M236,17h265"/>
		<text transform="matrix(1 0 0 1 511 344)" class="st1 st4">hCoV_19_England_SHEF-C0066_2020_EPI_ISL_420277</text>
	</g>
	<g transform="matrix(1,0,0,1,6,6)">
		<path class="st5" d="M483,341h18"/>
		<text transform="matrix(1 0 0 1 511 596)" class="st1 st4">hCoV_19_Spain_Valencia42_2020_EPI_ISL_420126</text>
	</g>
	<g transform="matrix(1,0,0,1,6,6)">
		<path class="st5" d="M264.5,593H501"/>
		<text transform="matrix(1 0 0 1 511 320)" class="st1 st4">hCoV_19_England_09c_2020_EPI_ISL_412116</text>
	</g>
	<g transform="matrix(1,0,0,1,6,6)">
		<path class="st5" d="M401.3,317H501"/>
		<text transform="matrix(1 0 0 1 511 236)" class="st1 st4">hCoV_19_Japan_TK_20-31-3_2020_EPI_ISL_413459</text>
	</g>
	<g transform="matrix(1,0,0,1,6,6)">
		<path class="st5" d="M173.8,233H501"/>
		<text transform="matrix(1 0 0 1 511 284)" class="st1 st4">hCoV_19_England_SHEF-C0172_2020_EPI_ISL_420259</text>
	</g>
	<g transform="matrix(1,0,0,1,6,6)">
		<path class="st5" d="M345.1,281H501"/>
		<text transform="matrix(1 0 0 1 511 272)" class="st1 st4">hCoV_19_USA_WA-UW22_2020_EPI_ISL_414591</text>
	</g>
	<g transform="matrix(1,0,0,1,6,6)">
		<path class="st5" d="M473.2,269H501"/>
		<text transform="matrix(1 0 0 1 511 80)" class="st1 st4">hCoV_19_Australia_QLD02_2020_EPI_ISL_407896</text>
	</g>
	<g transform="matrix(1,0,0,1,6,6)">
		<path class="st5" d="M329.3,77H501"/>
		<text transform="matrix(1 0 0 1 511 356)" class="st1 st4">hCoV_19_Australia_VIC299_2020_EPI_ISL_419990</text>
	</g>
	<g transform="matrix(1,0,0,1,6,6)">
		<path class="st5" d="M371.9,353H501"/>
		<text transform="matrix(1 0 0 1 511 428)" class="st1 st4">hCoV_19_Russia_StPetersburg-RII3992_2020_EPI_ISL_420080</text>
	</g>
	<g transform="matrix(1,0,0,1,6,6)">
		<path class="st5" d="M187.4,425H501"/>
	</g>
</g>
</svg>
